Coordinates
version=1
nRows=38
nColumns=38
inDegrees=no

Units are S.I. units (second, meters, Newtons, ...)
If the header above contains a line with 'inDegrees', this indicates whether rotational values are in degrees (yes) or radians (no).

endheader
time	pelvis_tilt	pelvis_list	pelvis_rotation	pelvis_tx	pelvis_ty	pelvis_tz	hip_flexion_r	hip_adduction_r	hip_rotation_r	knee_angle_r	ankle_angle_r	subtalar_angle_r	mtp_angle_r	hip_flexion_l	hip_adduction_l	hip_rotation_l	knee_angle_l	ankle_angle_l	subtalar_angle_l	mtp_angle_l	lumbar_extension	lumbar_bending	lumbar_rotation	arm_flex_r	arm_add_r	arm_rot_r	elbow_flex_r	pro_sup_r	wrist_flex_r	wrist_dev_r	arm_flex_l	arm_add_l	arm_rot_l	elbow_flex_l	pro_sup_l	wrist_flex_l	wrist_dev_l
0	0.89364	1.46466	0.902947	0.623509	0.567644	0.994414	0.522942	0.0379854	-0.0741349	0.234264	-0.356667	0	0	-0.0926114	-0.194187	-0.183273	0.641405	-0.155339	0	0	-0.144683	0.139638	0.0133819	-0.293497	-0.280601	0.288761	0.487544	1.00875	0	0	0.292115	-0.525464	0.94103	0.630498	1.19909	0	0
0.01	0.870682	1.4576	0.925543	0.624134	0.579188	0.994124	0.543882	0.0383364	-0.0874455	0.285633	-0.344859	0	0	-0.083169	-0.195764	-0.165967	0.662038	-0.167805	0	0	-0.145241	0.148126	0.0131047	-0.290843	-0.284467	0.28785	0.492744	1.0018	0	0	0.270409	-0.522527	0.919347	0.631328	1.20192	0	0
0.02	0.883524	1.45353	0.910372	0.624792	0.591514	0.994474	0.556647	0.0405989	-0.102298	0.331228	-0.325806	0	0	-0.0798287	-0.1998	-0.157253	0.682702	-0.182893	0	0	-0.150702	0.157749	0.0140233	-0.287118	-0.288469	0.289914	0.496179	0.995443	0	0	0.244881	-0.519749	0.892433	0.633392	1.20739	0	0
0.03	0.897208	1.45147	0.892536	0.6256	0.604084	0.995027	0.569618	0.0418131	-0.119232	0.382898	-0.28762	0	0	-0.0766723	-0.203263	-0.153711	0.706824	-0.207884	0	0	-0.15665	0.165497	0.0196866	-0.284765	-0.293539	0.300726	0.499689	0.973412	0	0	0.228094	-0.519158	0.898036	0.633572	1.17953	0	0
0.04	0.912791	1.45042	0.872173	0.626567	0.616857	0.99585	0.576719	0.0443482	-0.131979	0.424849	-0.270492	0	0	-0.0727829	-0.205984	-0.150555	0.733342	-0.231505	0	0	-0.163941	0.172512	0.0225559	-0.280948	-0.296238	0.304322	0.501839	0.967036	0	0	0.202789	-0.517456	0.881343	0.635438	1.16996	0	0
0.05	0.919661	1.44925	0.860403	0.627733	0.629772	0.996688	0.579928	0.0475389	-0.143424	0.457964	-0.254808	0	0	-0.0649631	-0.20783	-0.146846	0.763768	-0.259991	0	0	-0.168863	0.178123	0.023819	-0.277274	-0.29763	0.306413	0.503459	0.960754	0	0	0.175409	-0.515313	0.863851	0.636161	1.15738	0	0
0.06	0.924591	1.4476	0.850433	0.629088	0.642683	0.997561	0.577575	0.0523771	-0.153835	0.476592	-0.245027	0	0	-0.0534379	-0.209149	-0.140765	0.798189	-0.28533	0	0	-0.1724	0.183246	0.0253287	-0.274317	-0.298101	0.30675	0.505127	0.956551	0	0	0.148368	-0.512047	0.847908	0.634419	1.14691	0	0
0.07	0.927568	1.44549	0.841972	0.630553	0.655544	0.998418	0.571695	0.0583513	-0.164467	0.486151	-0.237965	0	0	-0.0385895	-0.209683	-0.132543	0.836436	-0.307448	0	0	-0.174815	0.187896	0.0276676	-0.272287	-0.298349	0.306966	0.507375	0.954665	0	0	0.121629	-0.507517	0.831955	0.631005	1.13836	0	0
0.08	0.932014	1.44302	0.832164	0.631984	0.668258	0.999252	0.563071	0.0650118	-0.175248	0.490214	-0.23188	0	0	-0.0212079	-0.209508	-0.121388	0.877421	-0.32564	0	0	-0.176736	0.192746	0.0299037	-0.27083	-0.298892	0.306765	0.510346	0.955351	0	0	0.0946601	-0.5015	0.813615	0.626499	1.13376	0	0
0.09	0.936925	1.44065	0.821834	0.633356	0.680769	1.00007	0.552256	0.0720159	-0.183841	0.490969	-0.217267	0	0	-0.00182293	-0.208323	-0.107807	0.920089	-0.343674	0	0	-0.174744	0.197697	0.0413309	-0.275774	-0.301284	0.312415	0.514985	0.935667	0	0	0.0892525	-0.497192	0.858163	0.613805	1.07598	0	0
0.1	0.94094	1.43834	0.812108	0.634636	0.693139	1.00101	0.539975	0.0788266	-0.189927	0.489628	-0.207429	0	0	0.0189417	-0.205868	-0.092323	0.963287	-0.357658	0	0	-0.17514	0.202519	0.0454168	-0.27588	-0.303193	0.313275	0.518124	0.935286	0	0	0.0673099	-0.489853	0.852793	0.605452	1.06615	0	0
0.11	0.944192	1.43665	0.802421	0.635906	0.705301	1.00213	0.525872	0.0859113	-0.190675	0.485485	-0.19759	0	0	0.0404862	-0.202279	-0.0767302	1.00648	-0.373707	0	0	-0.17579	0.206704	0.0498947	-0.275718	-0.305245	0.312892	0.520832	0.934758	0	0	0.0462023	-0.481362	0.847218	0.595277	1.0618	0	0
0.12	0.950642	1.4369	0.78852	0.637194	0.717239	1.00356	0.509771	0.0927026	-0.187561	0.480648	-0.202319	0	0	0.0606812	-0.19742	-0.0628795	1.04824	-0.381775	0	0	-0.180517	0.208865	0.0522452	-0.271649	-0.306504	0.311481	0.521122	0.943197	0	0	0.0191164	-0.472119	0.818424	0.588431	1.08408	0	0
0.13	0.944036	1.43699	0.787544	0.638463	0.729012	1.00502	0.49574	0.0987246	-0.182053	0.477493	-0.179586	0	0	0.0837389	-0.191675	-0.0498069	1.08883	-0.397555	0	0	-0.18034	0.210364	0.0586552	-0.272083	-0.309039	0.312083	0.523269	0.938926	0	0	0.00431493	-0.462161	0.825382	0.572364	1.07747	0	0
0.14	0.947527	1.44029	0.776069	0.639733	0.740577	1.00679	0.479517	0.103374	-0.176507	0.476798	-0.166593	0	0	0.102942	-0.18517	-0.0402484	1.12638	-0.392881	0	0	-0.181824	0.209983	0.0764764	-0.279484	-0.310349	0.306617	0.52709	0.922619	0	0	0.0101051	-0.45738	0.892385	0.554334	1.02817	0	0
0.15	0.948991	1.44418	0.766541	0.640969	0.752095	1.00871	0.461843	0.107838	-0.169343	0.472685	-0.159591	0	0	0.12177	-0.178769	-0.0342273	1.1607	-0.37734	0	0	-0.186145	0.208165	0.083242	-0.278414	-0.312007	0.305028	0.527673	0.920006	0	0	-0.00396302	-0.449054	0.896833	0.54099	1.03021	0	0
0.16	0.952852	1.44858	0.754706	0.642198	0.763538	1.01073	0.441519	0.112467	-0.161027	0.463682	-0.155204	0	0	0.140021	-0.17313	-0.0317008	1.19185	-0.353626	0	0	-0.190763	0.205764	0.0895243	-0.276511	-0.313468	0.304473	0.526722	0.917982	0	0	-0.0178067	-0.440427	0.900005	0.526812	1.03505	0	0
0.17	0.961956	1.4533	0.738727	0.643354	0.774793	1.01281	0.41829	0.116847	-0.153223	0.449687	-0.15253	0	0	0.158346	-0.168282	-0.0307399	1.22031	-0.327223	0	0	-0.19596	0.203206	0.0944727	-0.273855	-0.31487	0.304173	0.52513	0.916132	0	0	-0.0314518	-0.431557	0.900915	0.512171	1.04101	0	0
0.18	0.961717	1.45766	0.732779	0.644479	0.785871	1.01476	0.396906	0.119338	-0.148759	0.43821	-0.150303	0	0	0.178993	-0.163415	-0.0311284	1.24531	-0.317629	0	0	-0.200967	0.199249	0.092351	-0.265886	-0.315872	0.307033	0.520435	0.922271	0	0	-0.0545713	-0.421798	0.869288	0.501482	1.06644	0	0
0.19	0.985789	1.462	0.702919	0.645528	0.796833	1.01689	0.368194	0.124327	-0.140316	0.41398	-0.149043	0	0	0.197515	-0.16088	-0.032424	1.26831	-0.282185	0	0	-0.206199	0.198216	0.1001	-0.266519	-0.317924	0.304696	0.521091	0.915006	0	0	-0.0607719	-0.412338	0.886073	0.483203	1.05656	0	0
0.2	1.01355	1.46662	0.66931	0.646584	0.807589	1.01897	0.33937	0.128487	-0.133202	0.39036	-0.155714	0	0	0.216318	-0.158854	-0.0345094	1.28714	-0.264252	0	0	-0.208831	0.197065	0.118151	-0.275202	-0.317863	0.293852	0.522781	0.907164	0	0	-0.0491429	-0.409615	0.973157	0.466415	0.984411	0	0
0.21	1.03317	1.47007	0.643812	0.647591	0.818232	1.02087	0.310563	0.132962	-0.124531	0.363231	-0.160258	0	0	0.237058	-0.157381	-0.0361601	1.30224	-0.249754	0	0	-0.213136	0.195271	0.12375	-0.27395	-0.319767	0.294118	0.521849	0.906241	0	0	-0.0580095	-0.401392	0.98342	0.452206	0.974122	0	0
0.22	1.04994	1.47325	0.621051	0.648545	0.82871	1.02262	0.282677	0.136975	-0.115926	0.336374	-0.165309	0	0	0.258263	-0.156215	-0.0375969	1.31333	-0.237684	0	0	-0.217107	0.193267	0.128989	-0.273115	-0.321911	0.293863	0.522121	0.905684	0	0	-0.0671379	-0.393592	0.990562	0.43945	0.965359	0	0
0.23	1.0639	1.47632	0.600813	0.64946	0.839061	1.02423	0.256457	0.140238	-0.108266	0.311707	-0.169822	0	0	0.279485	-0.155499	-0.0395141	1.32029	-0.225473	0	0	-0.220766	0.19095	0.133873	-0.272739	-0.324421	0.293353	0.52382	0.905172	0	0	-0.0763771	-0.385824	0.995162	0.427339	0.962496	0	0
0.24	1.07621	1.4793	0.581947	0.650311	0.849316	1.02567	0.231667	0.14281	-0.101486	0.289651	-0.17132	0	0	0.300431	-0.154982	-0.0424614	1.32308	-0.214329	0	0	-0.224294	0.187852	0.137876	-0.271907	-0.327494	0.294079	0.526309	0.9051	0	0	-0.0862751	-0.378125	0.994968	0.415735	0.965147	0	0
0.25	1.11252	1.48369	0.539265	0.651142	0.859481	1.02732	0.20204	0.145468	-0.0918926	0.261731	-0.18716	0	0	0.317952	-0.155651	-0.047112	1.3217	-0.203669	0	0	-0.227953	0.186462	0.154389	-0.283763	-0.326563	0.270953	0.534201	0.915214	0	0	-0.0767936	-0.376713	1.07327	0.407252	0.901391	0	0
0.26	1.14748	1.48737	0.498336	0.651907	0.869604	1.02879	0.173091	0.148011	-0.081711	0.23397	-0.197152	0	0	0.335816	-0.156769	-0.0529856	1.31658	-0.194546	0	0	-0.233383	0.184004	0.159661	-0.285912	-0.329182	0.266374	0.540178	0.916096	0	0	-0.0826421	-0.371084	1.08574	0.398812	0.894706	0	0
0.27	1.19453	1.49114	0.44571	0.652596	0.87966	1.03023	0.14348	0.150232	-0.0712442	0.206549	-0.207374	0	0	0.352329	-0.158832	-0.0613431	1.30783	-0.186439	0	0	-0.239682	0.181694	0.164049	-0.288265	-0.332078	0.261548	0.547496	0.917332	0	0	-0.0879911	-0.365863	1.09672	0.391313	0.89385	0	0
0.28	1.25895	1.49511	0.375981	0.653219	0.889694	1.03163	0.111899	0.152233	-0.0596324	0.177032	-0.21888	0	0	0.366892	-0.161821	-0.0727621	1.2957	-0.178837	0	0	-0.24726	0.179249	0.166989	-0.290068	-0.335234	0.256535	0.555655	0.918016	0	0	-0.0942703	-0.360614	1.10244	0.384455	0.894502	0	0
0.29	1.34511	1.49927	0.284152	0.653823	0.899708	1.03303	0.0788383	0.153759	-0.0469088	0.146559	-0.229999	0	0	0.378919	-0.165792	-0.0880429	1.28057	-0.171728	0	0	-0.256555	0.176386	0.169427	-0.291405	-0.339154	0.252942	0.564851	0.918489	0	0	-0.100973	-0.355507	1.10297	0.37863	0.899815	0	0
0.3	1.41969	1.50375	0.203294	0.654604	0.909788	1.03426	0.0482663	0.154073	-0.0352591	0.119135	-0.233857	0	0	0.39078	-0.170755	-0.10661	1.26322	-0.16519	0	0	-0.266001	0.174781	0.170341	-0.291186	-0.342702	0.253185	0.572105	0.91901	0	0	-0.108708	-0.348998	1.09804	0.374715	0.908826	0	0
0.31	1.58359	1.50604	0.0342051	0.655189	0.91965	1.03559	0.00809411	0.155739	-0.0184819	0.0814822	-0.260459	0	0	0.395798	-0.176075	-0.127922	1.24251	-0.157118	0	0	-0.273814	0.171258	0.186121	-0.306456	-0.339632	0.21727	0.586008	0.935865	0	0	-0.0956543	-0.35532	1.18475	0.377515	0.835977	0	0
0.32	1.70542	1.50811	-0.0938152	0.655849	0.929643	1.0366	-0.0268843	0.155484	-0.00497232	0.0495472	-0.270088	0	0	0.402028	-0.179965	-0.149388	1.21854	-0.148851	0	0	-0.282611	0.16793	0.188322	-0.308384	-0.34235	0.211008	0.59513	0.938018	0	0	-0.101247	-0.352788	1.18694	0.376136	0.835992	0	0
0.33	1.80988	1.50954	-0.205311	0.656487	0.939613	1.03731	-0.0595081	0.154403	0.00741976	0.020432	-0.27583	0	0	0.407523	-0.182465	-0.170727	1.19099	-0.13969	0	0	-0.289642	0.164382	0.190556	-0.309883	-0.345445	0.206233	0.603638	0.940022	0	0	-0.107525	-0.34968	1.18548	0.374186	0.840338	0	0
0.34	1.88713	1.51064	-0.290188	0.657151	0.949485	1.03769	-0.0868518	0.152785	0.0167145	0	-0.276703	0	0	0.413013	-0.183932	-0.19161	1.15966	-0.130138	0	0	-0.294463	0.160823	0.192741	-0.310337	-0.348781	0.204009	0.610671	0.941361	0	0	-0.114153	-0.345759	1.18239	0.370636	0.850954	0	0
0.35	1.9671	1.5111	-0.375778	0.657689	0.959095	1.03784	-0.105934	0.151042	0.0190137	0	-0.270491	0	0	0.416734	-0.184811	-0.212503	1.12529	-0.12015	0	0	-0.296825	0.1579	0.193227	-0.312343	-0.350724	0.204117	0.616456	0.941625	0	0	-0.123231	-0.339497	1.16423	0.363321	0.88322	0	0
0.36	1.92704	1.51263	-0.346596	0.65841	0.968909	1.03731	-0.121294	0.149742	0.0184482	0	-0.269119	0	0	0.427197	-0.184532	-0.227888	1.08868	-0.112124	0	0	-0.296909	0.155035	0.197849	-0.309399	-0.355618	0.202513	0.621477	0.942432	0	0	-0.128279	-0.336201	1.16961	0.361386	0.882553	0	0
0.37	1.91762	1.5134	-0.34595	0.658999	0.978616	1.03671	-0.135928	0.148179	0.0190825	0	-0.267029	0	0	0.433023	-0.184734	-0.246622	1.0481	-0.103116	0	0	-0.295869	0.153053	0.202223	-0.309911	-0.358524	0.200216	0.625979	0.94349	0	0	-0.132671	-0.332547	1.17399	0.358237	0.880677	0	0
